<svg width="30" height="28" viewBox="0 0 30 28" fill="none" xmlns="http://www.w3.org/2000/svg">
<rect width="30" height="28" rx="4" fill="white"/>
<path d="M14.3828 23.2656C14.3828 23.5418 14.159 23.7656 13.8828 23.7656H10.1914C9.91526 23.7656 9.69141 23.5418 9.69141 23.2656V19.5742C9.69141 19.2981 9.91526 19.0742 10.1914 19.0742H13.8828C14.159 19.0742 14.3828 19.2981 14.3828 19.5742V23.2656ZM21.3086 9.69141V13.8828C21.3086 14.159 21.5325 14.3828 21.8086 14.3828H25.5C25.7761 14.3828 26 14.6067 26 14.8828V18.5742C26 18.8504 25.7761 19.0742 25.5 19.0742H21.8086C21.5325 19.0742 21.3086 19.2981 21.3086 19.5742V23.2656C21.3086 23.5418 21.0847 23.7656 20.8086 23.7656H17.1172C16.841 23.7656 16.6172 23.5418 16.6172 23.2656V10.1914C16.6172 9.91526 16.841 9.69141 17.1172 9.69141H21.3086ZM9.69141 9.19238C9.69141 9.46853 9.91526 9.69238 10.1914 9.69238H13.8828C14.159 9.69238 14.3828 9.91624 14.3828 10.1924V13.8838C14.3828 14.1599 14.159 14.3838 13.8828 14.3838H10.1914C9.91526 14.3838 9.69141 14.6076 9.69141 14.8838V18.5752C9.69141 18.8513 9.46755 19.0752 9.19141 19.0752H5.5C5.22386 19.0752 5 18.8513 5 18.5752V5.50098C5 5.22483 5.22386 5.00098 5.5 5.00098H9.19141C9.46755 5.00098 9.69141 5.22483 9.69141 5.50098V9.19238ZM25.5 5C25.7761 5 26 5.22386 26 5.5V9.19141C26 9.46755 25.7761 9.69141 25.5 9.69141H21.3086V5.5C21.3086 5.22386 21.5325 5 21.8086 5H25.5Z" fill="black"/>
</svg>
