<svg width="81" height="76" viewBox="0 0 81 76" fill="none" xmlns="http://www.w3.org/2000/svg">
<path d="M38 73C38 74.6569 36.6569 76 35 76H22C20.3431 76 19 74.6569 19 73V57H35C36.6569 57 38 58.3431 38 60V73ZM62 19V35C62 36.6569 63.3431 38 65 38H78C79.6569 38 81 39.3431 81 41V54C81 55.6569 79.6569 57 78 57H65C63.3431 57 62 58.3431 62 60V73C62 74.6569 60.6569 76 59 76H46C44.3431 76 43 74.6569 43 73V22C43 20.3431 44.3431 19 46 19H62ZM19 16C19 17.6569 20.3431 19 22 19H35C36.6569 19 38 20.3431 38 22V35C38 36.6569 36.6569 38 35 38H22C20.3431 38 19 39.3431 19 41V57H3C1.34315 57 0 55.6569 0 54V3C0 1.34314 1.34315 0 3 0H16C17.6569 0 19 1.34315 19 3V16ZM78 0C79.6569 0 81 1.34315 81 3V16C81 17.6569 79.6569 19 78 19H62V3C62 1.34315 63.3431 0 65 0H78Z" fill="black"/>
</svg>
